<svg width="16" height="16" viewBox="0 0 16 16" fill="none" xmlns="http://www.w3.org/2000/svg">
<path d="M13.9313 2.06904C13.6313 1.76909 13.2244 1.60059 12.8001 1.60059C12.3758 1.60059 11.9689 1.76909 11.6689 2.06904L5.6001 8.13784V10.4002H7.8625L13.9313 4.33144C14.2312 4.0314 14.3998 3.62451 14.3998 3.20024C14.3998 2.77598 14.2312 2.36909 13.9313 2.06904Z" fill="white"/>
<path fill-rule="evenodd" clip-rule="evenodd" d="M1.6001 4.8002C1.6001 4.37585 1.76867 3.96888 2.06873 3.66882C2.36878 3.36877 2.77575 3.2002 3.2001 3.2002H6.4001C6.61227 3.2002 6.81575 3.28448 6.96578 3.43451C7.11581 3.58454 7.2001 3.78802 7.2001 4.0002C7.2001 4.21237 7.11581 4.41585 6.96578 4.56588C6.81575 4.71591 6.61227 4.8002 6.4001 4.8002H3.2001V12.8002H11.2001V9.60019C11.2001 9.38802 11.2844 9.18454 11.4344 9.03451C11.5844 8.88448 11.7879 8.80019 12.0001 8.80019C12.2123 8.80019 12.4158 8.88448 12.5658 9.03451C12.7158 9.18454 12.8001 9.38802 12.8001 9.60019V12.8002C12.8001 13.2245 12.6315 13.6315 12.3315 13.9316C12.0314 14.2316 11.6244 14.4002 11.2001 14.4002H3.2001C2.77575 14.4002 2.36878 14.2316 2.06873 13.9316C1.76867 13.6315 1.6001 13.2245 1.6001 12.8002V4.8002Z" fill="white"/>
</svg>
